# xmcd
#
# Track frame offsets: 
#        150
#        18992
#        35587
#        59907
#        75430
#        95625
#        114200
#        135880
#        152507
#        173850
#
# Disc length: 2581 seconds
#
# Revision: 1
# Processed by: cddbd v1.5.2PL0 Copyright (c) Steve Scherf et al.
# Submitted via: ExactAudioCopyFreeDBPlugin 1.0
#
DISCID=730a130a
DTITLE=張佳琳 - New Swing Jazz
DYEAR=1999
DGENRE=Jazz
TTITLE0=Somewhere Out There
TTITLE1=Pink Panther
TTITLE2=Waiting For You
TTITLE3=For Elise
TTITLE4=Girl From Ipanema
TTITLE5=Yesterday Once More
TTITLE6=Through The Eyes Of Love
TTITLE7=Greenleeves
TTITLE8=City Light
TTITLE9=Waiting
EXTD=
EXTT0=
EXTT1=
EXTT2=
EXTT3=
EXTT4=
EXTT5=
EXTT6=
EXTT7=
EXTT8=
EXTT9=
PLAYORDER=
